Coordinates
version=1
nRows=17
nColumns=24
inDegrees=yes

Units are S.I. units (second, meters, Newtons, ...)
Angles are in degrees.

endheader
time	pelvis_tilt	pelvis_list	pelvis_rotation	pelvis_tx	pelvis_ty	pelvis_tz	hip_flexion_r	hip_adduction_r	hip_rotation_r	knee_angle_r	ankle_angle_r	subtalar_angle_r	mtp_angle_r	hip_flexion_l	hip_adduction_l	hip_rotation_l	knee_angle_l	ankle_angle_l	subtalar_angle_l	mtp_angle_l	lumbar_extension	lumbar_bending	lumbar_rotation
      1.10466667	      0.84565181	     -3.41138508	     -3.27355444	     -0.17356860	      1.05526235	      0.35607791	    -15.04740871	      8.80063968	     -0.35890060	     -3.40337770	      7.48407833	     -9.18835054	      5.20357813	     18.34951984	     -1.39422092	     -6.57749679	      5.97355180	     -0.02466826	     -3.41013483	      9.41821862	      1.55020584	      7.77390278	      2.38250696
      1.10883333	      0.85723516	     -3.43571081	     -3.30189097	     -0.16797311	      1.05455181	      0.35600749	    -15.17748381	      8.79713275	     -0.28467795	     -3.83463518	      7.47426441	     -9.22781846	      5.20004937	     18.32898195	     -1.34780582	     -6.47154387	      5.89307469	     -0.03404284	     -3.34256837	      9.39725834	      1.60782145	      7.75072522	      2.38891421
      1.11300000	      0.85728668	     -3.43645565	     -3.33949018	     -0.16227185	      1.05385978	      0.35597242	    -15.29338871	      8.76268367	     -0.17852772	     -4.28143160	      7.51349927	     -9.28829849	      5.19628485	     18.30472608	     -1.28891322	     -6.26941838	      5.76383425	     -0.05877889	     -3.24200643	      9.37250387	      1.64293436	      7.72620229	      2.39754791
      1.11716667	      0.86108546	     -3.44426699	     -3.28861546	     -0.15654955	      1.05314107	      0.35589049	    -15.42712563	      8.76086950	      0.00438589	     -4.70174296	      7.69881758	     -9.44868979	      5.18589252	     18.29467557	     -1.22511222	     -5.89617611	      5.54999825	     -0.10558086	     -3.09120653	      9.30052160	      1.61752582	      7.71826839	      2.41767853
      1.12133333	      0.88708576	     -3.44320393	     -3.33237105	     -0.15080534	      1.05254572	      0.35587746	    -15.53757494	      8.71775827	      0.07050866	     -5.21680155	      7.69883052	     -9.49218124	      5.18336880	     18.25467943	     -1.17378605	     -5.73198131	      5.27352967	     -0.14488611	     -3.05728417	      9.28190813	      1.66223361	      7.68636222	      2.42925862
      1.12550000	      0.90636894	     -3.44042842	     -3.37540935	     -0.14502643	      1.05196149	      0.35588029	    -15.63135498	      8.67099384	      0.15227013	     -5.75477439	      7.71863365	     -9.53280070	      5.18144834	     18.21443958	     -1.12851740	     -5.49115487	      4.95634676	     -0.21705935	     -3.01635773	      9.26225815	      1.68766569	      7.64421307	      2.44548219
      1.12966667	      0.93543040	     -3.43791540	     -3.40875879	     -0.13923776	      1.05141508	      0.35589035	    -15.72087731	      8.62446518	      0.23022148	     -6.32170104	      7.74329715	     -9.56384952	      5.18034679	     18.16377813	     -1.08687425	     -5.21464524	      4.59562282	     -0.32077515	     -2.98985448	      9.24237732	      1.70244651	      7.60004469	      2.46557662
      1.13383333	      0.98525094	     -3.43576599	     -3.26147033	     -0.13343119	      1.05083845	      0.35549303	    -15.81453268	      8.60617339	      0.04592482	     -6.90490078	      7.95306821	     -9.55316274	      5.17018875	     18.07912076	     -0.98324149	     -4.34398191	      4.26112906	     -0.80740159	     -3.73672226	      8.99568823	      1.60969272	      7.72781379	      2.55174107
      1.13800000	      1.02648390	     -3.42656478	     -3.32019527	     -0.12758169	      1.05039996	      0.35555583	    -15.88377881	      8.53909913	      0.13009540	     -7.53986904	      7.89444302	     -9.52479869	      5.17101743	     18.00880878	     -0.94970716	     -4.15978955	      3.82680623	     -0.89587847	     -3.72913897	      8.98121079	      1.64963897	      7.62468894	      2.56923874
      1.14216667	      1.06044869	     -3.39373684	     -3.27813381	     -0.12166995	      1.04994448	      0.35517980	    -15.90002846	      8.44000382	     -0.13730114	     -8.24656914	      7.96158523	     -8.97538639	      5.19968050	     17.90674284	     -0.83889798	     -3.44539710	      3.47555886	     -1.52632012	     -4.68181962	      8.69660572	      1.57447328	      7.56726379	      2.62690577
      1.14633333	      1.11192466	     -3.36585535	     -3.34182131	     -0.11574107	      1.04961327	      0.35524744	    -15.94215301	      8.34248110	     -0.09363890	     -8.95836255	      7.90090466	     -8.96961761	      5.20220412	     17.80419447	     -0.79312673	     -3.25876747	      3.02782986	     -1.63526411	     -4.65288642	      8.68414457	      1.62657208	      7.50019935	      2.63917123
      1.15050000	      1.09835170	     -3.33026355	     -3.34538431	     -0.10978627	      1.04921092	      0.35507591	    -15.86800116	      8.23747671	     -0.29319930	     -9.74221559	      7.76999926	     -8.75963941	      5.21934009	     17.77060792	     -0.71354103	     -2.91137044	      2.59537478	     -2.14759481	     -4.76883527	      8.62484614	      1.49616978	      7.42780215	      2.66442261
      1.15466667	      1.19219743	     -3.30400384	     -3.39155184	     -0.10387156	      1.04902486	      0.35511956	    -15.90776467	      8.13647455	     -0.29901171	    -10.53823603	      7.69583179	     -8.71368020	      5.22486417	     17.61660411	     -0.67108663	     -2.74421435	      2.13088143	     -2.28246030	     -4.80657668	      8.61315059	      1.60966678	      7.36229293	      2.68489771
      1.15883333	      1.23714355	     -3.19857421	     -3.31677016	     -0.09771053	      1.04878267	      0.35437446	    -15.82994419	      7.90943129	     -0.91239038	    -11.44941191	      7.75418756	     -7.54965285	      5.36517490	     17.44002175	     -0.45251065	     -1.88312049	      1.84177064	     -3.34593419	     -6.45126888	      8.39135755	      1.58338704	      7.29392435	      2.75414310
      1.16300000	      1.31481026	     -3.15922748	     -3.38097232	     -0.09177281	      1.04868678	      0.35440077	    -15.79081810	      7.77631887	     -0.96794806	    -12.36163712	      7.63103692	     -7.54410415	      5.37326776	     17.28572122	     -0.40726574	     -1.74859397	      1.39272286	     -3.48878017	     -6.43147701	      8.38097383	      1.63004071	      7.21611805	      2.76405846
      1.16716667	      1.36034585	     -3.03542669	     -3.34917715	     -0.08553183	      1.04858503	      0.35396623	    -15.68451222	      7.53335020	     -1.43373526	    -13.30926977	      7.21470833	     -6.88443166	      5.48212558	     17.13149466	     -0.21015460	     -1.40812287	      1.03804214	     -4.41950828	     -6.95443125	      8.27245854	      1.63023974	      7.14202534	      2.79229892
      1.17133333	      1.43729063	     -2.93548720	     -3.35117960	     -0.07946475	      1.04857678	      0.35356818	    -15.56624951	      7.29963317	     -1.83084733	    -14.35190131	      7.01107022	     -6.30029900	      5.63880844	     16.94981546	     -0.05328960	     -1.09134764	      0.65291428	     -5.02545455	     -7.68280511	      8.15789976	      1.58371593	      7.01476134	      2.80833150
